<svg width="36" height="36" viewBox="0 0 36 36" fill="none" xmlns="http://www.w3.org/2000/svg">
<path fill-rule="evenodd" clip-rule="evenodd" d="M4.1706 0H31.8294C34.1241 0 36 1.87564 36 4.16995V31.8356C36 34.1244 34.1297 36 31.8294 36H24.7444C23.8176 34.7831 23.5273 33.2256 24.2866 32.2655C25.0571 31.2886 26.4808 31.5007 27.6309 32.4776C27.7035 32.5446 27.7816 32.6116 27.8598 32.6786C28.6805 30.8867 29.0769 28.8435 28.9932 26.6553C28.9094 26.6385 28.8313 26.6274 28.7475 26.6051C27.536 26.3259 26.3579 25.2486 26.1346 23.9256C26.1346 23.9256 26.1328 23.9237 26.129 23.92C25.9001 22.6137 26.7264 21.849 27.8654 21.8992C27.938 21.8992 28.0217 21.9048 28.1055 21.916C27.3908 19.8059 26.2909 17.8186 24.9287 16.0267C24.8784 16.0657 24.8226 16.0992 24.7723 16.1383C23.9795 16.7133 22.6787 16.557 21.6681 15.5131C20.652 14.4636 20.5403 13.1741 21.1824 12.4205C21.2215 12.3703 21.2661 12.3201 21.3108 12.2698C19.5242 10.8017 17.4919 9.57916 15.2978 8.71391C15.2978 8.80323 15.2978 8.88138 15.2978 8.95953V9.06559C15.2978 9.06559 15.2978 9.10467 15.2978 9.11583C15.2922 9.13258 15.2922 9.15491 15.2922 9.16607C15.2922 9.18282 15.2922 9.19398 15.2866 9.21631C15.2866 9.23306 15.2866 9.24422 15.2866 9.26097C15.2866 9.2833 15.281 9.30005 15.281 9.31121C15.281 9.33354 15.2754 9.35029 15.2754 9.36145C15.2754 9.3782 15.2699 9.38936 15.2643 9.40611C15.2643 9.42844 15.2587 9.44519 15.2531 9.45635C15.2531 9.4731 15.2475 9.48426 15.2419 9.50101C15.2419 9.51776 15.2364 9.54008 15.2252 9.54567C15.2252 9.56241 15.214 9.57358 15.2084 9.59032C15.2084 9.60707 15.2029 9.6294 15.1917 9.63498C15.1861 9.65731 15.1805 9.67406 15.1749 9.67964C15.1749 9.70197 15.1638 9.70755 15.1582 9.7243C15.1526 9.74105 15.147 9.75221 15.1414 9.76896C15.1359 9.7857 15.1247 9.79129 15.1191 9.80803C15.1135 9.82478 15.1024 9.83594 15.0968 9.85269C15.0912 9.86944 15.08 9.8806 15.08 9.89177C15.0689 9.90851 15.0633 9.91968 15.0521 9.93084C15.0465 9.94759 15.0354 9.95875 15.0242 9.9755C15.0186 9.98108 15.0074 9.99783 15.0074 10.0146C14.9963 10.0313 14.9851 10.0369 14.9739 10.0537C14.9684 10.0592 14.9572 10.076 14.946 10.0816C14.9404 10.0983 14.9293 10.1039 14.9181 10.1206C14.9181 10.1206 14.8958 10.143 14.8902 10.1486C14.879 10.1653 14.8679 10.1709 14.8623 10.1876C14.8511 10.1932 14.8399 10.21 14.8288 10.2155C14.812 10.2323 14.8009 10.2379 14.7953 10.2434C14.7841 10.2602 14.773 10.2658 14.7618 10.2714C14.7506 10.2769 14.7339 10.2937 14.7283 10.2993C14.7115 10.3049 14.7004 10.3216 14.6892 10.3272C14.6725 10.3328 14.6613 10.3439 14.6501 10.3551C14.639 10.3607 14.6222 10.3718 14.611 10.3774C14.5999 10.3942 14.5887 10.3942 14.572 10.3998C14.572 10.3998 14.544 10.4165 14.5273 10.4221C14.5273 10.4221 14.505 10.4444 14.4882 10.45C14.4882 10.45 14.4603 10.4556 14.4491 10.4667C14.4268 10.4723 14.4212 10.4835 14.4045 10.4891C14.3877 10.4947 14.3766 10.4947 14.3598 10.5114C14.3486 10.5114 14.3319 10.517 14.3151 10.517C14.3151 10.517 14.2872 10.5337 14.2761 10.5393C14.2761 10.5393 14.237 10.5561 14.2314 10.5561C14.2146 10.5616 14.1923 10.5728 14.1811 10.5728C14.17 10.5728 14.1476 10.5784 14.1309 10.5784C14.1309 10.5784 14.103 10.5951 14.0806 10.5951C14.0806 10.5951 14.0471 10.6007 14.0304 10.6119H13.9746C13.9746 10.6119 13.9411 10.6175 13.9243 10.6175C13.902 10.623 13.8852 10.623 13.8685 10.623C13.8685 10.623 13.8294 10.6286 13.8127 10.623C13.7959 10.6286 13.7736 10.6286 13.7624 10.6286H13.7066C13.7066 10.6286 13.6675 10.6342 13.6452 10.6342C13.6452 10.6342 13.6061 10.6286 13.5893 10.6286C13.5726 10.6286 13.5502 10.6286 13.5279 10.623C13.5112 10.6286 13.4888 10.623 13.4665 10.623C13.4665 10.623 13.4274 10.6175 13.4051 10.6175C13.4051 10.6175 13.366 10.6175 13.3437 10.6119C13.3437 10.6119 13.3046 10.6063 13.2823 10.6063C13.2823 10.6063 13.2432 10.6007 13.2208 10.5895C13.1985 10.5895 13.1818 10.584 13.1594 10.584C13.1594 10.584 13.1148 10.5784 13.0924 10.5672C11.6799 10.2546 10.5577 8.98186 10.2897 7.72585C10.273 7.63653 10.2506 7.5528 10.2395 7.46348C7.86104 7.22345 5.59988 7.49139 3.60112 8.22267C3.66811 8.3064 3.74069 8.39014 3.81328 8.46829C4.87407 9.71872 5.08623 11.2092 3.99194 11.9349C2.96464 12.6159 1.33437 12.2977 0.0167494 11.3599V4.16995C0 1.87564 1.87593 0 4.1706 0ZM5.03598 36L4.92432 35.9274C4.9969 35.827 5.07506 35.7376 5.14764 35.6427C6.24194 34.2862 6.27543 32.3771 4.92432 31.082C3.5732 29.7758 1.53536 29.7758 0.0669975 30.7973L0 30.842V31.8412C0 34.1299 1.87593 36.0056 4.1706 36.0056H5.03598V36ZM13.5 14.0394C11.1272 13.5761 8.8995 14.0338 7.31948 15.2228L7.28598 15.2507C8.62593 14.6758 10.2395 14.5083 11.9311 14.8377C14.2035 15.2898 16.2134 16.4788 17.7823 18.0865C19.3455 19.6719 20.4566 21.6648 20.786 23.8251C21.1154 25.9854 20.5682 27.9504 19.3623 29.3236C18.4243 30.3954 17.1123 31.1379 15.4876 31.3779C18 31.5119 19.9653 30.641 21.2661 29.1673C22.5223 27.7271 23.0918 25.6728 22.7457 23.412C22.3995 21.1624 21.2382 19.0746 19.6135 17.4167C17.9721 15.742 15.8672 14.4971 13.5 14.0338V14.0394ZM13.3325 12.8783C10.6191 12.3145 8.01737 12.7945 6.15819 14.1287C4.19851 15.5299 2.99256 17.813 3.12097 20.7939C3.24938 23.7749 4.76799 26.7949 7.09615 29.0613C9.40199 31.3053 12.4895 32.7735 15.4932 32.9353C18.4969 33.0861 20.7916 32.0143 22.2711 30.2447C23.6836 28.5644 24.2978 26.1808 23.879 23.6018C23.4603 21.034 22.1315 18.6782 20.2891 16.7914C18.4299 14.8935 16.0459 13.4477 13.3325 12.8839V12.8783Z" fill="#836048"/>
</svg>
